<mxfile host="65bd71144e">
    <diagram id="x_bucJ3ch9ePKVVhvvJs" name="Page-1">
        <mxGraphModel dx="1991" dy="713" grid="1" gridSize="10" guides="1" tooltips="1" connect="1" arrows="1" fold="1" page="1" pageScale="1" pageWidth="850" pageHeight="1100" math="0" shadow="0">
            <root>
                <mxCell id="0"/>
                <mxCell id="1" parent="0"/>
                <mxCell id="57" value="" style="rounded=1;whiteSpace=wrap;html=1;dashed=1;fontSize=14;fillColor=#1ba1e2;fontColor=#ffffff;strokeColor=#006EAF;" vertex="1" parent="1">
                    <mxGeometry x="-835" y="10" width="820" height="430" as="geometry"/>
                </mxCell>
                <mxCell id="23" value="" style="rounded=1;whiteSpace=wrap;html=1;dashed=1;fontSize=14;fillColor=none;fontColor=#ffffff;strokeColor=default;" parent="1" vertex="1">
                    <mxGeometry x="-574" y="30" width="150" height="380" as="geometry"/>
                </mxCell>
                <mxCell id="50" value="" style="rounded=1;whiteSpace=wrap;html=1;dashed=1;fontSize=14;fillColor=none;fontColor=#ffffff;strokeColor=default;" parent="1" vertex="1">
                    <mxGeometry x="-810" y="30" width="150" height="380" as="geometry"/>
                </mxCell>
                <mxCell id="4" value="env/dev/" style="rounded=1;whiteSpace=wrap;html=1;fontSize=14;fillColor=#0050ef;fontColor=#ffffff;strokeColor=#001DBC;strokeWidth=2;" parent="1" vertex="1">
                    <mxGeometry x="-798" y="60" width="120" height="60" as="geometry"/>
                </mxCell>
                <mxCell id="5" value="env/stage/" style="rounded=1;whiteSpace=wrap;html=1;fontSize=14;fillColor=#0050ef;strokeColor=#001DBC;strokeWidth=2;fontColor=#ffffff;labelBackgroundColor=none;" parent="1" vertex="1">
                    <mxGeometry x="-794" y="170" width="120" height="60" as="geometry"/>
                </mxCell>
                <mxCell id="6" value="env/prod/" style="rounded=1;whiteSpace=wrap;html=1;fontSize=14;fillColor=#0050ef;strokeColor=#001DBC;strokeWidth=2;fontColor=#ffffff;" parent="1" vertex="1">
                    <mxGeometry x="-795" y="280" width="120" height="60" as="geometry"/>
                </mxCell>
                <mxCell id="14" style="edgeStyle=none;html=1;exitX=0.5;exitY=0;exitDx=0;exitDy=0;entryX=1;entryY=0.5;entryDx=0;entryDy=0;" parent="1" source="13" target="4" edge="1">
                    <mxGeometry relative="1" as="geometry">
                        <Array as="points">
                            <mxPoint x="-294" y="90"/>
                        </Array>
                    </mxGeometry>
                </mxCell>
                <mxCell id="18" style="edgeStyle=none;html=1;exitX=0;exitY=0.5;exitDx=0;exitDy=0;fontSize=11;entryX=1;entryY=0.5;entryDx=0;entryDy=0;" parent="1" source="13" target="5" edge="1">
                    <mxGeometry relative="1" as="geometry">
                        <mxPoint x="-614" y="200" as="targetPoint"/>
                    </mxGeometry>
                </mxCell>
                <mxCell id="20" style="edgeStyle=none;html=1;exitX=0.5;exitY=1;exitDx=0;exitDy=0;entryX=1;entryY=0.5;entryDx=0;entryDy=0;fontSize=11;" parent="1" source="13" target="6" edge="1">
                    <mxGeometry relative="1" as="geometry">
                        <mxPoint x="-614" y="310" as="targetPoint"/>
                        <Array as="points">
                            <mxPoint x="-294" y="310"/>
                        </Array>
                    </mxGeometry>
                </mxCell>
                <mxCell id="13" value="Container&lt;br&gt;Registry" style="shape=hexagon;perimeter=hexagonPerimeter2;whiteSpace=wrap;html=1;fixedSize=1;fillColor=#0050ef;fontColor=#ffffff;strokeColor=#001DBC;fontSize=14;strokeWidth=2;" parent="1" vertex="1">
                    <mxGeometry x="-354" y="160" width="120" height="80" as="geometry"/>
                </mxCell>
                <mxCell id="16" value="Auto Commit&lt;br style=&quot;font-size: 14px;&quot;&gt;Latest Tag" style="rounded=1;whiteSpace=wrap;html=1;fontSize=14;fillColor=#0050ef;fontColor=#ffffff;strokeColor=#001DBC;strokeWidth=2;" parent="1" vertex="1">
                    <mxGeometry x="-559" y="60" width="120" height="60" as="geometry"/>
                </mxCell>
                <mxCell id="19" value="Auto Commit&lt;br style=&quot;font-size: 14px;&quot;&gt;Versioned Tag&lt;br style=&quot;font-size: 14px;&quot;&gt;eg v1.0.3" style="rounded=1;whiteSpace=wrap;html=1;fontSize=14;fillColor=#0050ef;fontColor=#ffffff;strokeColor=#001DBC;strokeWidth=2;" parent="1" vertex="1">
                    <mxGeometry x="-559" y="170" width="120" height="60" as="geometry"/>
                </mxCell>
                <mxCell id="22" value="Pull Request&lt;br style=&quot;font-size: 14px;&quot;&gt;Versioned Tag&lt;br style=&quot;font-size: 14px;&quot;&gt;eg v1.0.3" style="rounded=1;whiteSpace=wrap;html=1;fontSize=14;fillColor=#0050ef;fontColor=#ffffff;strokeColor=#001DBC;strokeWidth=2;" parent="1" vertex="1">
                    <mxGeometry x="-559" y="280" width="120" height="60" as="geometry"/>
                </mxCell>
                <mxCell id="25" value="Kobold" style="rounded=1;whiteSpace=wrap;html=1;fontSize=14;strokeWidth=0;fillColor=none;strokeColor=none;" parent="1" vertex="1">
                    <mxGeometry x="-546.5" y="360" width="95" height="40" as="geometry"/>
                </mxCell>
                <mxCell id="27" value="Git Repository" style="rounded=1;whiteSpace=wrap;html=1;fontSize=14;strokeWidth=0;fillColor=none;strokeColor=none;" parent="1" vertex="1">
                    <mxGeometry x="-786.5" y="360" width="95" height="40" as="geometry"/>
                </mxCell>
                <mxCell id="30" value="" style="shape=note;whiteSpace=wrap;html=1;backgroundOutline=1;darkOpacity=0.05;fontSize=14;strokeWidth=1;fillColor=#0050ef;size=19;fontColor=#ffffff;strokeColor=#001DBC;" parent="1" vertex="1">
                    <mxGeometry x="-122" y="152" width="80" height="100" as="geometry"/>
                </mxCell>
                <mxCell id="36" style="edgeStyle=none;html=1;exitX=0.013;exitY=0.43;exitDx=0;exitDy=0;exitPerimeter=0;entryX=1;entryY=0.5;entryDx=0;entryDy=0;fontSize=14;" parent="1" source="33" target="13" edge="1">
                    <mxGeometry relative="1" as="geometry">
                        <Array as="points">
                            <mxPoint x="-178" y="200"/>
                        </Array>
                    </mxGeometry>
                </mxCell>
                <mxCell id="33" value="" style="shape=note;whiteSpace=wrap;html=1;backgroundOutline=1;darkOpacity=0.05;fontSize=14;strokeWidth=1;fillColor=#0050ef;size=19;fontColor=#ffffff;strokeColor=#001DBC;" parent="1" vertex="1">
                    <mxGeometry x="-116" y="157" width="80" height="100" as="geometry"/>
                </mxCell>
                <mxCell id="35" value="Build Pipeline" style="shape=note;whiteSpace=wrap;html=1;backgroundOutline=1;darkOpacity=0.05;fontSize=14;strokeWidth=1;fillColor=#0050ef;size=19;fontColor=#ffffff;strokeColor=#001DBC;fontStyle=4" parent="1" vertex="1">
                    <mxGeometry x="-110" y="160" width="79" height="102" as="geometry"/>
                </mxCell>
                <mxCell id="53" value="docker push" style="rounded=1;whiteSpace=wrap;html=1;strokeWidth=0;fillColor=#0050ef;fontColor=#ffffff;strokeColor=#001DBC;" parent="1" vertex="1">
                    <mxGeometry x="-215" y="210" width="80" height="30" as="geometry"/>
                </mxCell>
                <mxCell id="55" value="webhook&lt;br&gt;events" style="rounded=1;whiteSpace=wrap;html=1;strokeWidth=0;fontColor=#ffffff;fillColor=#0050ef;strokeColor=#001DBC;" parent="1" vertex="1">
                    <mxGeometry x="-404" y="110" width="80" height="40" as="geometry"/>
                </mxCell>
            </root>
        </mxGraphModel>
    </diagram>
</mxfile>
